<mxfile>
    <diagram id="fI5RTLDOAWzqv0Ly87yR" name="Page-1">
        <mxGraphModel dx="1625" dy="610" grid="1" gridSize="10" guides="1" tooltips="1" connect="1" arrows="1" fold="1" page="1" pageScale="1" pageWidth="827" pageHeight="1169" background="#FFFFFF" math="0" shadow="0">
            <root>
                <mxCell id="0"/>
                <mxCell id="1" parent="0"/>
                <mxCell id="125" value="Publisher - Subscriber" style="shape=umlFrame;whiteSpace=wrap;html=1;width=150;height=30;boundedLbl=1;verticalAlign=middle;align=left;spacingLeft=5;fillColor=#6d8764;strokeColor=#3A5431;fontColor=#ffffff;" parent="1" vertex="1">
                    <mxGeometry x="560" y="575" width="630" height="380" as="geometry"/>
                </mxCell>
                <mxCell id="140" style="rounded=0;orthogonalLoop=1;jettySize=auto;html=1;entryX=1;entryY=0.5;entryDx=0;entryDy=0;startArrow=classic;startFill=1;endArrow=none;endFill=0;dashed=1;exitX=-0.002;exitY=0.509;exitDx=0;exitDy=0;exitPerimeter=0;labelBackgroundColor=#DAD2D8;strokeColor=#A8201A;fontColor=#143642;" parent="1" source="100" target="7" edge="1">
                    <mxGeometry relative="1" as="geometry"/>
                </mxCell>
                <mxCell id="100" value="Master - Slave" style="shape=umlFrame;whiteSpace=wrap;html=1;width=120;height=30;boundedLbl=1;verticalAlign=middle;align=left;spacingLeft=5;fillColor=#a0522d;strokeColor=#6D1F00;fontColor=#ffffff;" parent="1" vertex="1">
                    <mxGeometry x="560" y="215" width="630" height="340" as="geometry"/>
                </mxCell>
                <mxCell id="26" value="Layers Design" style="shape=umlFrame;whiteSpace=wrap;html=1;width=120;height=30;boundedLbl=1;verticalAlign=middle;align=left;spacingLeft=5;fillColor=#008a00;strokeColor=#005700;fontColor=#ffffff;" parent="1" vertex="1">
                    <mxGeometry x="-380" y="215" width="500" height="240" as="geometry"/>
                </mxCell>
                <mxCell id="67" value="Microservices" style="shape=umlFrame;whiteSpace=wrap;html=1;width=120;height=30;boundedLbl=1;verticalAlign=middle;align=left;spacingLeft=5;rounded=0;fillColor=#fa6800;strokeColor=#C73500;fontColor=#ffffff;labelBackgroundColor=none;" parent="1" vertex="1">
                    <mxGeometry x="-380" y="495" width="500" height="460" as="geometry"/>
                </mxCell>
                <mxCell id="3" value="Layer - User interface (Client)" style="shape=umlFrame;whiteSpace=wrap;html=1;width=120;height=30;boundedLbl=1;verticalAlign=middle;align=left;spacingLeft=5;fillColor=#6a00ff;strokeColor=#3700CC;fontColor=#ffffff;" parent="1" vertex="1">
                    <mxGeometry x="140" y="215" width="400" height="200" as="geometry"/>
                </mxCell>
                <mxCell id="4" value="Layer - Application (Server)" style="shape=umlFrame;whiteSpace=wrap;html=1;width=120;height=30;boundedLbl=1;verticalAlign=middle;align=left;spacingLeft=5;fillColor=#76608a;strokeColor=#432D57;fontColor=#ffffff;" parent="1" vertex="1">
                    <mxGeometry x="140" y="415" width="400" height="320" as="geometry"/>
                </mxCell>
                <mxCell id="5" value="Layer - Data Access (DB)" style="shape=umlFrame;whiteSpace=wrap;html=1;width=120;height=30;boundedLbl=1;verticalAlign=middle;align=left;spacingLeft=5;fillColor=#e1d5e7;strokeColor=#9673a6;fontColor=#000000;" parent="1" vertex="1">
                    <mxGeometry x="140" y="735" width="400" height="220" as="geometry"/>
                </mxCell>
                <mxCell id="20" style="edgeStyle=none;rounded=0;orthogonalLoop=1;jettySize=auto;html=1;entryX=0.5;entryY=0;entryDx=0;entryDy=0;labelBackgroundColor=#DAD2D8;strokeColor=#A8201A;fontColor=#143642;" parent="1" source="241" target="7" edge="1">
                    <mxGeometry relative="1" as="geometry"/>
                </mxCell>
                <mxCell id="242" style="rounded=0;orthogonalLoop=1;jettySize=auto;html=1;strokeColor=#990000;fontColor=#000000;entryX=0.665;entryY=0.076;entryDx=0;entryDy=0;entryPerimeter=0;" edge="1" parent="1" source="6" target="241">
                    <mxGeometry relative="1" as="geometry"/>
                </mxCell>
                <mxCell id="6" value="Users" style="rounded=0;whiteSpace=wrap;html=1;fillColor=#FAE5C7;strokeColor=#0F8B8D;fontColor=#143642;" parent="1" vertex="1">
                    <mxGeometry x="344" y="256" width="70" height="33" as="geometry"/>
                </mxCell>
                <mxCell id="21" style="edgeStyle=none;rounded=0;orthogonalLoop=1;jettySize=auto;html=1;entryX=0.5;entryY=0;entryDx=0;entryDy=0;labelBackgroundColor=#DAD2D8;strokeColor=#A8201A;fontColor=#143642;exitX=0;exitY=0.5;exitDx=0;exitDy=0;" parent="1" source="232" target="8" edge="1">
                    <mxGeometry relative="1" as="geometry"/>
                </mxCell>
                <mxCell id="22" style="edgeStyle=none;rounded=0;orthogonalLoop=1;jettySize=auto;html=1;exitX=1;exitY=0.5;exitDx=0;exitDy=0;entryX=0.5;entryY=0;entryDx=0;entryDy=0;labelBackgroundColor=#DAD2D8;strokeColor=#A8201A;fontColor=#143642;" parent="1" source="232" target="18" edge="1">
                    <mxGeometry relative="1" as="geometry"/>
                </mxCell>
                <mxCell id="234" style="edgeStyle=orthogonalEdgeStyle;rounded=0;orthogonalLoop=1;jettySize=auto;html=1;entryX=0.5;entryY=0;entryDx=0;entryDy=0;fontColor=#000000;strokeColor=#990000;" edge="1" parent="1" source="7" target="232">
                    <mxGeometry relative="1" as="geometry"/>
                </mxCell>
                <mxCell id="7" value="Internet" style="rounded=0;whiteSpace=wrap;html=1;fillColor=#FAE5C7;strokeColor=#0F8B8D;fontColor=#143642;" parent="1" vertex="1">
                    <mxGeometry x="300" y="456.75" width="80" height="40" as="geometry"/>
                </mxCell>
                <mxCell id="23" style="edgeStyle=none;rounded=0;orthogonalLoop=1;jettySize=auto;html=1;exitX=0.5;exitY=1;exitDx=0;exitDy=0;labelBackgroundColor=#DAD2D8;strokeColor=#A8201A;fontColor=#143642;entryX=0.002;entryY=0.052;entryDx=0;entryDy=0;entryPerimeter=0;" parent="1" source="8" target="257" edge="1">
                    <mxGeometry relative="1" as="geometry">
                        <mxPoint x="300" y="760" as="targetPoint"/>
                    </mxGeometry>
                </mxCell>
                <mxCell id="27" style="edgeStyle=none;rounded=0;orthogonalLoop=1;jettySize=auto;html=1;entryX=1;entryY=0.996;entryDx=0;entryDy=0;entryPerimeter=0;dashed=1;labelBackgroundColor=#DAD2D8;strokeColor=#A8201A;fontColor=#143642;" parent="1" source="8" target="26" edge="1">
                    <mxGeometry relative="1" as="geometry"/>
                </mxCell>
                <mxCell id="8" value="Main Web Server" style="rounded=0;whiteSpace=wrap;html=1;fillColor=#FAE5C7;strokeColor=#0F8B8D;fontColor=#143642;" parent="1" vertex="1">
                    <mxGeometry x="220" y="615" width="80" height="40" as="geometry"/>
                </mxCell>
                <mxCell id="19" style="edgeStyle=none;rounded=0;orthogonalLoop=1;jettySize=auto;html=1;entryX=1;entryY=0.5;entryDx=0;entryDy=0;dashed=1;labelBackgroundColor=#DAD2D8;strokeColor=#A8201A;fontColor=#143642;" parent="1" source="10" target="12" edge="1">
                    <mxGeometry relative="1" as="geometry"/>
                </mxCell>
                <mxCell id="10" value="Client" style="verticalAlign=top;align=left;spacingTop=8;spacingLeft=2;spacingRight=12;shape=cube;size=10;direction=south;fontStyle=4;html=1;fillColor=#FAE5C7;strokeColor=#0F8B8D;fontColor=#143642;" parent="1" vertex="1">
                    <mxGeometry x="20" y="235" width="80" height="40" as="geometry"/>
                </mxCell>
                <mxCell id="15" style="rounded=0;orthogonalLoop=1;jettySize=auto;html=1;entryX=1;entryY=1;entryDx=0;entryDy=0;dashed=1;labelBackgroundColor=#DAD2D8;strokeColor=#A8201A;fontColor=#143642;" parent="1" target="12" edge="1">
                    <mxGeometry relative="1" as="geometry">
                        <mxPoint x="18" y="364" as="sourcePoint"/>
                    </mxGeometry>
                </mxCell>
                <mxCell id="16" style="edgeStyle=none;rounded=0;orthogonalLoop=1;jettySize=auto;html=1;entryX=1;entryY=0.5;entryDx=0;entryDy=0;dashed=1;exitX=0.48;exitY=1;exitDx=0;exitDy=0;exitPerimeter=0;labelBackgroundColor=#DAD2D8;strokeColor=#A8201A;fontColor=#143642;" parent="1" source="11" target="13" edge="1">
                    <mxGeometry relative="1" as="geometry"/>
                </mxCell>
                <mxCell id="17" style="edgeStyle=none;rounded=0;orthogonalLoop=1;jettySize=auto;html=1;entryX=1;entryY=0.5;entryDx=0;entryDy=0;dashed=1;exitX=0.48;exitY=1.025;exitDx=0;exitDy=0;exitPerimeter=0;labelBackgroundColor=#DAD2D8;strokeColor=#A8201A;fontColor=#143642;" parent="1" source="11" target="14" edge="1">
                    <mxGeometry relative="1" as="geometry"/>
                </mxCell>
                <mxCell id="11" value="Server &lt;br&gt;(Web)" style="verticalAlign=top;align=left;spacingTop=8;spacingLeft=2;spacingRight=12;shape=cube;size=10;direction=south;fontStyle=4;html=1;fillColor=#FAE5C7;strokeColor=#0F8B8D;fontColor=#143642;" parent="1" vertex="1">
                    <mxGeometry x="20" y="315" width="80" height="100" as="geometry"/>
                </mxCell>
                <mxCell id="12" value="Presentation" style="shape=module;align=left;spacingLeft=20;align=center;verticalAlign=top;fillColor=#FAE5C7;strokeColor=#0F8B8D;fontColor=#143642;" parent="1" vertex="1">
                    <mxGeometry x="-130" y="255" width="100" height="40" as="geometry"/>
                </mxCell>
                <mxCell id="249" style="edgeStyle=none;rounded=0;orthogonalLoop=1;jettySize=auto;html=1;entryX=1;entryY=0.5;entryDx=0;entryDy=0;strokeColor=#990000;fontColor=#000000;dashed=1;" edge="1" parent="1" source="13" target="247">
                    <mxGeometry relative="1" as="geometry"/>
                </mxCell>
                <mxCell id="13" value="Logical" style="shape=module;align=left;spacingLeft=20;align=center;verticalAlign=top;fillColor=#FAE5C7;strokeColor=#0F8B8D;fontColor=#143642;" parent="1" vertex="1">
                    <mxGeometry x="-130" y="319" width="100" height="40" as="geometry"/>
                </mxCell>
                <mxCell id="250" style="edgeStyle=none;rounded=0;orthogonalLoop=1;jettySize=auto;html=1;entryX=1;entryY=0.5;entryDx=0;entryDy=0;dashed=1;strokeColor=#990000;fontColor=#000000;" edge="1" parent="1" source="14" target="248">
                    <mxGeometry relative="1" as="geometry"/>
                </mxCell>
                <mxCell id="14" value="Persistence" style="shape=module;align=left;spacingLeft=20;align=center;verticalAlign=top;fillColor=#FAE5C7;strokeColor=#0F8B8D;fontColor=#143642;" parent="1" vertex="1">
                    <mxGeometry x="-130" y="383.75" width="100" height="40" as="geometry"/>
                </mxCell>
                <mxCell id="24" style="edgeStyle=none;rounded=0;orthogonalLoop=1;jettySize=auto;html=1;exitX=0.5;exitY=1;exitDx=0;exitDy=0;labelBackgroundColor=#DAD2D8;strokeColor=#A8201A;fontColor=#143642;entryX=0.574;entryY=0.008;entryDx=0;entryDy=0;entryPerimeter=0;" parent="1" source="18" target="257" edge="1">
                    <mxGeometry relative="1" as="geometry">
                        <mxPoint x="370" y="750" as="targetPoint"/>
                    </mxGeometry>
                </mxCell>
                <mxCell id="18" value="Secondary Web Server" style="rounded=0;whiteSpace=wrap;html=1;fillColor=#FAE5C7;strokeColor=#0F8B8D;fontColor=#143642;" parent="1" vertex="1">
                    <mxGeometry x="380" y="615" width="80" height="40" as="geometry"/>
                </mxCell>
                <mxCell id="68" style="edgeStyle=none;rounded=0;orthogonalLoop=1;jettySize=auto;html=1;dashed=1;labelBackgroundColor=#DAD2D8;strokeColor=#A8201A;fontColor=#143642;" parent="1" source="257" target="67" edge="1">
                    <mxGeometry relative="1" as="geometry">
                        <mxPoint x="130" y="1050" as="sourcePoint"/>
                    </mxGeometry>
                </mxCell>
                <mxCell id="28" value="2.2 Layers" style="text;html=1;align=center;verticalAlign=middle;resizable=0;points=[];autosize=1;rounded=0;fillColor=#FAE5C7;strokeColor=#0F8B8D;fontColor=#143642;" parent="1" vertex="1">
                    <mxGeometry x="-370" y="252.5" width="70" height="20" as="geometry"/>
                </mxCell>
                <mxCell id="29" value="2.3 Client-Server" style="text;html=1;align=center;verticalAlign=middle;resizable=0;points=[];autosize=1;fillColor=#FAE5C7;strokeColor=#0F8B8D;fontColor=#143642;" parent="1" vertex="1">
                    <mxGeometry x="150" y="255" width="110" height="20" as="geometry"/>
                </mxCell>
                <mxCell id="31" value="Login/Log out" style="html=1;dashed=0;rounded=1;absoluteArcSize=1;arcSize=20;verticalAlign=middle;align=center;fillColor=#FAE5C7;strokeColor=#0F8B8D;fontColor=#143642;" parent="1" vertex="1">
                    <mxGeometry x="-291.25" y="622" width="87.5" height="29" as="geometry"/>
                </mxCell>
                <mxCell id="32" value="Check in" style="html=1;dashed=0;rounded=1;absoluteArcSize=1;arcSize=20;verticalAlign=middle;align=center;fillColor=#FAE5C7;strokeColor=#0F8B8D;fontColor=#143642;" parent="1" vertex="1">
                    <mxGeometry x="-173.75" y="622" width="77.5" height="29" as="geometry"/>
                </mxCell>
                <mxCell id="33" value="Pay for a course" style="html=1;dashed=0;rounded=1;absoluteArcSize=1;arcSize=20;verticalAlign=middle;align=center;fillColor=#FAE5C7;strokeColor=#0F8B8D;fontColor=#143642;" parent="1" vertex="1">
                    <mxGeometry x="-66.25" y="622" width="107.5" height="29" as="geometry"/>
                </mxCell>
                <mxCell id="34" value="" style="endArrow=classic;startArrow=classic;html=1;exitX=0.55;exitY=-0.04;exitDx=0;exitDy=0;exitPerimeter=0;entryX=0.5;entryY=1;entryDx=0;entryDy=0;labelBackgroundColor=#DAD2D8;strokeColor=#A8201A;fontColor=#143642;" parent="1" source="31" edge="1">
                    <mxGeometry width="50" height="50" relative="1" as="geometry">
                        <mxPoint x="-252.5" y="604" as="sourcePoint"/>
                        <mxPoint x="-135" y="591" as="targetPoint"/>
                    </mxGeometry>
                </mxCell>
                <mxCell id="35" value="" style="endArrow=classic;startArrow=classic;html=1;entryX=0.5;entryY=1;entryDx=0;entryDy=0;labelBackgroundColor=#DAD2D8;strokeColor=#A8201A;fontColor=#143642;" parent="1" source="32" edge="1">
                    <mxGeometry width="50" height="50" relative="1" as="geometry">
                        <mxPoint x="-182.5" y="677" as="sourcePoint"/>
                        <mxPoint x="-135" y="591" as="targetPoint"/>
                    </mxGeometry>
                </mxCell>
                <mxCell id="36" value="" style="endArrow=classic;startArrow=classic;html=1;entryX=0.5;entryY=1;entryDx=0;entryDy=0;exitX=0.5;exitY=0;exitDx=0;exitDy=0;labelBackgroundColor=#DAD2D8;strokeColor=#A8201A;fontColor=#143642;" parent="1" source="33" edge="1">
                    <mxGeometry width="50" height="50" relative="1" as="geometry">
                        <mxPoint x="17.5" y="647" as="sourcePoint"/>
                        <mxPoint x="-135" y="591" as="targetPoint"/>
                    </mxGeometry>
                </mxCell>
                <mxCell id="38" value="" style="endArrow=classic;startArrow=classic;html=1;entryX=0.5;entryY=1;entryDx=0;entryDy=0;labelBackgroundColor=#DAD2D8;strokeColor=#A8201A;fontColor=#143642;exitX=0.557;exitY=0;exitDx=0;exitDy=0;exitPerimeter=0;" parent="1" source="205" target="31" edge="1">
                    <mxGeometry width="50" height="50" relative="1" as="geometry">
                        <mxPoint x="-247.5" y="680.5" as="sourcePoint"/>
                        <mxPoint x="-152.5" y="724" as="targetPoint"/>
                    </mxGeometry>
                </mxCell>
                <mxCell id="40" value="" style="endArrow=classic;startArrow=classic;html=1;entryX=0.5;entryY=1;entryDx=0;entryDy=0;labelBackgroundColor=#DAD2D8;strokeColor=#A8201A;fontColor=#143642;" parent="1" source="204" target="32" edge="1">
                    <mxGeometry width="50" height="50" relative="1" as="geometry">
                        <mxPoint x="-135" y="680.5" as="sourcePoint"/>
                        <mxPoint x="-72.5" y="704" as="targetPoint"/>
                    </mxGeometry>
                </mxCell>
                <mxCell id="42" value="" style="endArrow=classic;startArrow=classic;html=1;entryX=0.5;entryY=1;entryDx=0;entryDy=0;labelBackgroundColor=#DAD2D8;strokeColor=#A8201A;fontColor=#143642;exitX=0.417;exitY=0;exitDx=0;exitDy=0;exitPerimeter=0;" parent="1" source="203" target="33" edge="1">
                    <mxGeometry width="50" height="50" relative="1" as="geometry">
                        <mxPoint x="-12.5" y="680.5" as="sourcePoint"/>
                        <mxPoint x="167.5" y="704" as="targetPoint"/>
                    </mxGeometry>
                </mxCell>
                <mxCell id="46" value="Courses" style="html=1;dashed=0;rounded=1;absoluteArcSize=1;arcSize=20;verticalAlign=middle;align=center;fillColor=#FAE5C7;strokeColor=#0F8B8D;fontColor=#143642;" parent="1" vertex="1">
                    <mxGeometry x="-165" y="755" width="67.5" height="29" as="geometry"/>
                </mxCell>
                <mxCell id="47" value="Add support material" style="html=1;dashed=0;rounded=1;absoluteArcSize=1;arcSize=20;verticalAlign=middle;align=center;fillColor=#FAE5C7;strokeColor=#0F8B8D;fontColor=#143642;" parent="1" vertex="1">
                    <mxGeometry x="-250" y="825" width="142.5" height="29" as="geometry"/>
                </mxCell>
                <mxCell id="48" value="Lessons" style="html=1;dashed=0;rounded=1;absoluteArcSize=1;arcSize=20;verticalAlign=middle;align=center;fillColor=#FAE5C7;strokeColor=#0F8B8D;fontColor=#143642;" parent="1" vertex="1">
                    <mxGeometry x="-77.5" y="825" width="70" height="29" as="geometry"/>
                </mxCell>
                <mxCell id="49" value="Certification" style="html=1;dashed=0;rounded=1;absoluteArcSize=1;arcSize=20;verticalAlign=middle;align=center;fillColor=#FAE5C7;strokeColor=#0F8B8D;fontColor=#143642;" parent="1" vertex="1">
                    <mxGeometry x="22.5" y="825" width="77.5" height="29" as="geometry"/>
                </mxCell>
                <mxCell id="50" value="" style="endArrow=classic;startArrow=classic;html=1;exitX=0.55;exitY=-0.04;exitDx=0;exitDy=0;exitPerimeter=0;entryX=0.5;entryY=1;entryDx=0;entryDy=0;labelBackgroundColor=#DAD2D8;strokeColor=#A8201A;fontColor=#143642;" parent="1" source="47" target="46" edge="1">
                    <mxGeometry width="50" height="50" relative="1" as="geometry">
                        <mxPoint x="-282.5" y="844" as="sourcePoint"/>
                        <mxPoint x="-132.5" y="794" as="targetPoint"/>
                    </mxGeometry>
                </mxCell>
                <mxCell id="51" value="" style="endArrow=classic;startArrow=classic;html=1;entryX=0.5;entryY=1;entryDx=0;entryDy=0;exitX=0.5;exitY=0;exitDx=0;exitDy=0;labelBackgroundColor=#DAD2D8;strokeColor=#A8201A;fontColor=#143642;" parent="1" source="48" target="46" edge="1">
                    <mxGeometry width="50" height="50" relative="1" as="geometry">
                        <mxPoint x="-212.5" y="917" as="sourcePoint"/>
                        <mxPoint x="-100.5" y="814" as="targetPoint"/>
                    </mxGeometry>
                </mxCell>
                <mxCell id="52" value="" style="endArrow=classic;startArrow=classic;html=1;entryX=0.5;entryY=1;entryDx=0;entryDy=0;exitX=0.5;exitY=0;exitDx=0;exitDy=0;labelBackgroundColor=#DAD2D8;strokeColor=#A8201A;fontColor=#143642;" parent="1" source="49" target="46" edge="1">
                    <mxGeometry width="50" height="50" relative="1" as="geometry">
                        <mxPoint x="-12.5" y="887" as="sourcePoint"/>
                        <mxPoint x="99.5" y="784" as="targetPoint"/>
                    </mxGeometry>
                </mxCell>
                <mxCell id="54" value="" style="endArrow=classic;startArrow=classic;html=1;entryX=0.5;entryY=1;entryDx=0;entryDy=0;labelBackgroundColor=#DAD2D8;strokeColor=#A8201A;fontColor=#143642;" parent="1" source="206" target="47" edge="1">
                    <mxGeometry width="50" height="50" relative="1" as="geometry">
                        <mxPoint x="-178.75" y="885" as="sourcePoint"/>
                        <mxPoint x="-72.5" y="954" as="targetPoint"/>
                    </mxGeometry>
                </mxCell>
                <mxCell id="56" value="" style="endArrow=classic;startArrow=classic;html=1;entryX=0.5;entryY=1;entryDx=0;entryDy=0;labelBackgroundColor=#DAD2D8;strokeColor=#A8201A;fontColor=#143642;exitX=0.448;exitY=0;exitDx=0;exitDy=0;exitPerimeter=0;" parent="1" source="202" target="48" edge="1">
                    <mxGeometry width="50" height="50" relative="1" as="geometry">
                        <mxPoint x="-42.5" y="885" as="sourcePoint"/>
                        <mxPoint x="7.5" y="934" as="targetPoint"/>
                    </mxGeometry>
                </mxCell>
                <mxCell id="58" value="" style="endArrow=classic;startArrow=classic;html=1;entryX=0.5;entryY=1;entryDx=0;entryDy=0;labelBackgroundColor=#DAD2D8;strokeColor=#A8201A;fontColor=#143642;exitX=0.495;exitY=-0.031;exitDx=0;exitDy=0;exitPerimeter=0;" parent="1" source="208" target="49" edge="1">
                    <mxGeometry width="50" height="50" relative="1" as="geometry">
                        <mxPoint x="60.639763779527584" y="885" as="sourcePoint"/>
                        <mxPoint x="247.5" y="934" as="targetPoint"/>
                    </mxGeometry>
                </mxCell>
                <mxCell id="62" value="Inscription" style="html=1;dashed=0;rounded=1;absoluteArcSize=1;arcSize=20;verticalAlign=middle;align=center;fillColor=#FAE5C7;strokeColor=#0F8B8D;fontColor=#143642;" parent="1" vertex="1">
                    <mxGeometry x="-362.5" y="825" width="80" height="29" as="geometry"/>
                </mxCell>
                <mxCell id="64" value="" style="endArrow=classic;startArrow=classic;html=1;entryX=0.5;entryY=1;entryDx=0;entryDy=0;labelBackgroundColor=#DAD2D8;strokeColor=#A8201A;fontColor=#143642;exitX=0.573;exitY=0.008;exitDx=0;exitDy=0;exitPerimeter=0;" parent="1" source="207" target="62" edge="1">
                    <mxGeometry width="50" height="50" relative="1" as="geometry">
                        <mxPoint x="-323.08401639344265" y="882.5" as="sourcePoint"/>
                        <mxPoint x="-197.5" y="954" as="targetPoint"/>
                    </mxGeometry>
                </mxCell>
                <mxCell id="66" value="" style="endArrow=classic;startArrow=classic;html=1;exitX=0.5;exitY=0;exitDx=0;exitDy=0;entryX=0.5;entryY=1;entryDx=0;entryDy=0;labelBackgroundColor=#DAD2D8;strokeColor=#A8201A;fontColor=#143642;" parent="1" source="62" target="46" edge="1">
                    <mxGeometry width="50" height="50" relative="1" as="geometry">
                        <mxPoint x="-309.5" y="801.9999999999998" as="sourcePoint"/>
                        <mxPoint x="-282.5" y="734" as="targetPoint"/>
                    </mxGeometry>
                </mxCell>
                <mxCell id="69" value="2.1 Microservices" style="text;html=1;align=center;verticalAlign=middle;resizable=0;points=[];autosize=1;fillColor=#FAE5C7;strokeColor=#0F8B8D;fontColor=#143642;" parent="1" vertex="1">
                    <mxGeometry x="-370" y="535" width="110" height="20" as="geometry"/>
                </mxCell>
                <mxCell id="70" value="Presentation" style="text;html=1;align=center;verticalAlign=middle;resizable=0;points=[];autosize=1;fontColor=#143642;" parent="1" vertex="1">
                    <mxGeometry x="170" y="495" width="80" height="20" as="geometry"/>
                </mxCell>
                <mxCell id="93" style="edgeStyle=orthogonalEdgeStyle;rounded=0;orthogonalLoop=1;jettySize=auto;html=1;entryX=0.5;entryY=0;entryDx=0;entryDy=0;entryPerimeter=0;labelBackgroundColor=#DAD2D8;strokeColor=#A8201A;fontColor=#143642;" parent="1" source="77" edge="1">
                    <mxGeometry relative="1" as="geometry">
                        <Array as="points">
                            <mxPoint x="890" y="295"/>
                            <mxPoint x="960" y="295"/>
                        </Array>
                        <mxPoint x="960" y="314.9999999999999" as="targetPoint"/>
                    </mxGeometry>
                </mxCell>
                <mxCell id="94" style="edgeStyle=orthogonalEdgeStyle;rounded=0;orthogonalLoop=1;jettySize=auto;html=1;entryX=0.5;entryY=0;entryDx=0;entryDy=0;entryPerimeter=0;labelBackgroundColor=#DAD2D8;strokeColor=#A8201A;fontColor=#143642;" parent="1" source="77" edge="1">
                    <mxGeometry relative="1" as="geometry">
                        <Array as="points">
                            <mxPoint x="890" y="295"/>
                            <mxPoint x="840" y="295"/>
                        </Array>
                        <mxPoint x="840" y="314.9999999999999" as="targetPoint"/>
                    </mxGeometry>
                </mxCell>
                <mxCell id="99" style="edgeStyle=orthogonalEdgeStyle;rounded=0;orthogonalLoop=1;jettySize=auto;html=1;dashed=1;endArrow=none;endFill=0;labelBackgroundColor=#DAD2D8;strokeColor=#A8201A;fontColor=#143642;" parent="1" source="77" target="87" edge="1">
                    <mxGeometry relative="1" as="geometry">
                        <Array as="points">
                            <mxPoint x="780" y="254"/>
                            <mxPoint x="780" y="254"/>
                        </Array>
                    </mxGeometry>
                </mxCell>
                <mxCell id="77" value="Main server" style="verticalAlign=top;align=left;spacingTop=8;spacingLeft=2;spacingRight=12;shape=cube;size=10;direction=south;fontStyle=4;html=1;fillColor=#FAE5C7;strokeColor=#0F8B8D;fontColor=#143642;" parent="1" vertex="1">
                    <mxGeometry x="845" y="232.5" width="85" height="42.5" as="geometry"/>
                </mxCell>
                <mxCell id="78" style="edgeStyle=orthogonalEdgeStyle;rounded=0;orthogonalLoop=1;jettySize=auto;html=1;exitX=0;exitY=0;exitDx=45;exitDy=70;exitPerimeter=0;entryX=0.5;entryY=0;entryDx=0;entryDy=0;entryPerimeter=0;labelBackgroundColor=#DAD2D8;strokeColor=#A8201A;fontColor=#143642;" parent="1" source="80" edge="1">
                    <mxGeometry relative="1" as="geometry">
                        <mxPoint x="800" y="495" as="targetPoint"/>
                    </mxGeometry>
                </mxCell>
                <mxCell id="79" style="edgeStyle=orthogonalEdgeStyle;rounded=0;orthogonalLoop=1;jettySize=auto;html=1;exitX=0;exitY=0;exitDx=45;exitDy=70;exitPerimeter=0;entryX=0.5;entryY=0;entryDx=0;entryDy=0;entryPerimeter=0;labelBackgroundColor=#DAD2D8;strokeColor=#A8201A;fontColor=#143642;" parent="1" source="80" edge="1">
                    <mxGeometry relative="1" as="geometry">
                        <mxPoint x="970" y="495" as="targetPoint"/>
                    </mxGeometry>
                </mxCell>
                <mxCell id="80" value="Secondary server" style="verticalAlign=top;align=left;spacingTop=8;spacingLeft=2;spacingRight=12;shape=cube;size=10;direction=south;fontStyle=4;html=1;fillColor=#FAE5C7;strokeColor=#0F8B8D;fontColor=#143642;" parent="1" vertex="1">
                    <mxGeometry x="826" y="395" width="130" height="45" as="geometry"/>
                </mxCell>
                <mxCell id="84" style="edgeStyle=orthogonalEdgeStyle;rounded=0;orthogonalLoop=1;jettySize=auto;html=1;exitX=0;exitY=0;exitDx=80;exitDy=42.5;exitPerimeter=0;entryX=0;entryY=0;entryDx=27.5;entryDy=130;entryPerimeter=0;dashed=1;endArrow=none;endFill=0;labelBackgroundColor=#DAD2D8;strokeColor=#A8201A;fontColor=#143642;" parent="1" source="85" target="80" edge="1">
                    <mxGeometry relative="1" as="geometry">
                        <Array as="points">
                            <mxPoint x="690" y="423"/>
                            <mxPoint x="773" y="423"/>
                        </Array>
                    </mxGeometry>
                </mxCell>
                <mxCell id="85" value="Replication" style="shape=note2;boundedLbl=1;whiteSpace=wrap;html=1;size=25;verticalAlign=top;align=center;fillColor=#FAE5C7;strokeColor=#0F8B8D;fontColor=#143642;" parent="1" vertex="1">
                    <mxGeometry x="640" y="390" width="80" height="50" as="geometry"/>
                </mxCell>
                <mxCell id="87" value="Master" style="shape=note2;boundedLbl=1;whiteSpace=wrap;html=1;size=25;verticalAlign=top;align=center;fillColor=#FAE5C7;strokeColor=#0F8B8D;fontColor=#143642;" parent="1" vertex="1">
                    <mxGeometry x="700" y="225" width="60" height="47.5" as="geometry"/>
                </mxCell>
                <mxCell id="88" style="edgeStyle=orthogonalEdgeStyle;rounded=0;orthogonalLoop=1;jettySize=auto;html=1;exitX=0;exitY=0.5;exitDx=0;exitDy=0;exitPerimeter=0;entryX=0;entryY=0;entryDx=17.5;entryDy=0;entryPerimeter=0;dashed=1;endArrow=none;endFill=0;labelBackgroundColor=#DAD2D8;strokeColor=#A8201A;fontColor=#143642;" parent="1" source="89" target="80" edge="1">
                    <mxGeometry relative="1" as="geometry">
                        <Array as="points">
                            <mxPoint x="956" y="408"/>
                        </Array>
                    </mxGeometry>
                </mxCell>
                <mxCell id="89" value="Slave" style="shape=note2;boundedLbl=1;whiteSpace=wrap;html=1;size=25;verticalAlign=top;align=center;fillColor=#FAE5C7;strokeColor=#0F8B8D;fontColor=#143642;" parent="1" vertex="1">
                    <mxGeometry x="1040" y="382.5" width="50" height="50" as="geometry"/>
                </mxCell>
                <mxCell id="95" style="edgeStyle=orthogonalEdgeStyle;rounded=0;orthogonalLoop=1;jettySize=auto;html=1;exitX=0.5;exitY=1;exitDx=0;exitDy=0;exitPerimeter=0;entryX=0;entryY=0;entryDx=0;entryDy=60;entryPerimeter=0;labelBackgroundColor=#DAD2D8;strokeColor=#A8201A;fontColor=#143642;" parent="1" target="80" edge="1">
                    <mxGeometry relative="1" as="geometry">
                        <mxPoint x="840" y="355" as="sourcePoint"/>
                    </mxGeometry>
                </mxCell>
                <mxCell id="96" style="edgeStyle=orthogonalEdgeStyle;rounded=0;orthogonalLoop=1;jettySize=auto;html=1;entryX=0;entryY=0;entryDx=0;entryDy=60;entryPerimeter=0;labelBackgroundColor=#DAD2D8;strokeColor=#A8201A;fontColor=#143642;" parent="1" target="80" edge="1">
                    <mxGeometry relative="1" as="geometry">
                        <Array as="points">
                            <mxPoint x="960" y="375"/>
                            <mxPoint x="896" y="375"/>
                        </Array>
                        <mxPoint x="960" y="355" as="sourcePoint"/>
                    </mxGeometry>
                </mxCell>
                <mxCell id="101" value="2.4 Master - Slave" style="text;html=1;align=center;verticalAlign=middle;resizable=0;points=[];autosize=1;fillColor=#FAE5C7;strokeColor=#0F8B8D;fontColor=#143642;" parent="1" vertex="1">
                    <mxGeometry x="580" y="295" width="110" height="20" as="geometry"/>
                </mxCell>
                <mxCell id="102" style="edgeStyle=orthogonalEdgeStyle;rounded=0;orthogonalLoop=1;jettySize=auto;html=1;exitX=1;exitY=0.5;exitDx=0;exitDy=0;entryX=0;entryY=0;entryDx=0;entryDy=20;entryPerimeter=0;labelBackgroundColor=#DAD2D8;strokeColor=#A8201A;fontColor=#143642;" parent="1" source="103" target="111" edge="1">
                    <mxGeometry relative="1" as="geometry">
                        <Array as="points">
                            <mxPoint x="665.75" y="700.5"/>
                        </Array>
                    </mxGeometry>
                </mxCell>
                <mxCell id="103" value="Publisher" style="html=1;fillColor=#FAE5C7;strokeColor=#0F8B8D;fontColor=#143642;" parent="1" vertex="1">
                    <mxGeometry x="588.75" y="680.5" width="77" height="35" as="geometry"/>
                </mxCell>
                <mxCell id="104" style="edgeStyle=orthogonalEdgeStyle;rounded=0;orthogonalLoop=1;jettySize=auto;html=1;exitX=1;exitY=0.5;exitDx=0;exitDy=0;entryX=0;entryY=0;entryDx=0;entryDy=20;entryPerimeter=0;labelBackgroundColor=#DAD2D8;strokeColor=#A8201A;fontColor=#143642;" parent="1" source="105" target="116" edge="1">
                    <mxGeometry relative="1" as="geometry"/>
                </mxCell>
                <mxCell id="105" value="Alarm" style="html=1;fillColor=#FAE5C7;strokeColor=#0F8B8D;fontColor=#143642;" parent="1" vertex="1">
                    <mxGeometry x="837.75" y="678" width="63" height="35" as="geometry"/>
                </mxCell>
                <mxCell id="106" value="Teacher" style="html=1;fillColor=#FAE5C7;strokeColor=#0F8B8D;fontColor=#143642;" parent="1" vertex="1">
                    <mxGeometry x="1100" y="768" width="70" height="35" as="geometry"/>
                </mxCell>
                <mxCell id="109" value="Client" style="html=1;fillColor=#FAE5C7;strokeColor=#0F8B8D;fontColor=#143642;" parent="1" vertex="1">
                    <mxGeometry x="779" y="768" width="66" height="35" as="geometry"/>
                </mxCell>
                <mxCell id="110" style="edgeStyle=orthogonalEdgeStyle;rounded=0;orthogonalLoop=1;jettySize=auto;html=1;exitX=1;exitY=0.5;exitDx=0;exitDy=0;exitPerimeter=0;entryX=0;entryY=0.5;entryDx=0;entryDy=0;labelBackgroundColor=#DAD2D8;strokeColor=#A8201A;fontColor=#143642;" parent="1" source="111" target="105" edge="1">
                    <mxGeometry relative="1" as="geometry"/>
                </mxCell>
                <mxCell id="111" value="Alarm channel" style="html=1;shape=mxgraph.infographic.ribbonSimple;notch1=0;notch2=20;align=center;verticalAlign=middle;fontSize=14;fontStyle=0;fillColor=#FAE5C7;strokeColor=#0F8B8D;fontColor=#143642;" parent="1" vertex="1">
                    <mxGeometry x="697.75" y="680.5" width="117" height="30" as="geometry"/>
                </mxCell>
                <mxCell id="143" style="edgeStyle=orthogonalEdgeStyle;rounded=0;orthogonalLoop=1;jettySize=auto;html=1;entryX=0.5;entryY=0;entryDx=0;entryDy=0;startArrow=none;startFill=0;endArrow=classic;endFill=1;labelBackgroundColor=#DAD2D8;strokeColor=#A8201A;fontColor=#143642;" parent="1" source="116" target="106" edge="1">
                    <mxGeometry relative="1" as="geometry">
                        <Array as="points">
                            <mxPoint x="1064" y="696"/>
                            <mxPoint x="1064" y="750"/>
                            <mxPoint x="1135" y="750"/>
                        </Array>
                        <mxPoint x="1089.5" y="618.5" as="targetPoint"/>
                    </mxGeometry>
                </mxCell>
                <mxCell id="144" style="edgeStyle=orthogonalEdgeStyle;rounded=0;orthogonalLoop=1;jettySize=auto;html=1;entryX=0.5;entryY=0;entryDx=0;entryDy=0;startArrow=none;startFill=0;endArrow=classic;endFill=1;labelBackgroundColor=#DAD2D8;strokeColor=#A8201A;fontColor=#143642;" parent="1" source="116" target="107" edge="1">
                    <mxGeometry relative="1" as="geometry">
                        <Array as="points">
                            <mxPoint x="1064" y="696"/>
                            <mxPoint x="1064" y="750"/>
                            <mxPoint x="1028" y="750"/>
                        </Array>
                        <mxPoint x="1089.5" y="671" as="targetPoint"/>
                    </mxGeometry>
                </mxCell>
                <mxCell id="145" style="edgeStyle=orthogonalEdgeStyle;rounded=0;orthogonalLoop=1;jettySize=auto;html=1;entryX=0.5;entryY=0;entryDx=0;entryDy=0;startArrow=none;startFill=0;endArrow=classic;endFill=1;labelBackgroundColor=#DAD2D8;strokeColor=#A8201A;fontColor=#143642;" parent="1" source="116" target="108" edge="1">
                    <mxGeometry relative="1" as="geometry">
                        <Array as="points">
                            <mxPoint x="1064" y="696"/>
                            <mxPoint x="1064" y="750"/>
                            <mxPoint x="918" y="750"/>
                        </Array>
                        <mxPoint x="1089.5" y="723.5" as="targetPoint"/>
                    </mxGeometry>
                </mxCell>
                <mxCell id="146" style="edgeStyle=orthogonalEdgeStyle;rounded=0;orthogonalLoop=1;jettySize=auto;html=1;entryX=0.5;entryY=0;entryDx=0;entryDy=0;startArrow=none;startFill=0;endArrow=classic;endFill=1;labelBackgroundColor=#DAD2D8;strokeColor=#A8201A;fontColor=#143642;" parent="1" source="116" target="109" edge="1">
                    <mxGeometry relative="1" as="geometry">
                        <Array as="points">
                            <mxPoint x="1064" y="696"/>
                            <mxPoint x="1064" y="750"/>
                            <mxPoint x="812" y="750"/>
                        </Array>
                        <mxPoint x="1089.5" y="777.9999999999998" as="targetPoint"/>
                    </mxGeometry>
                </mxCell>
                <mxCell id="116" value="Triggering alarm." style="html=1;shape=mxgraph.infographic.ribbonSimple;notch1=0;notch2=20;align=center;verticalAlign=middle;fontSize=14;fontStyle=0;fillColor=#FAE5C7;strokeColor=#0F8B8D;fontColor=#143642;" parent="1" vertex="1">
                    <mxGeometry x="922.75" y="675.5" width="130" height="40" as="geometry"/>
                </mxCell>
                <mxCell id="117" style="edgeStyle=orthogonalEdgeStyle;rounded=0;orthogonalLoop=1;jettySize=auto;html=1;exitX=0;exitY=0;exitDx=47.5;exitDy=0;exitPerimeter=0;entryX=0.5;entryY=1;entryDx=0;entryDy=0;dashed=1;endArrow=none;endFill=0;labelBackgroundColor=#DAD2D8;strokeColor=#A8201A;fontColor=#143642;" parent="1" source="118" target="103" edge="1">
                    <mxGeometry relative="1" as="geometry"/>
                </mxCell>
                <mxCell id="118" value="Azure security" style="shape=note2;boundedLbl=1;whiteSpace=wrap;html=1;size=25;verticalAlign=top;align=center;fillColor=#FAE5C7;strokeColor=#0F8B8D;fontColor=#143642;" parent="1" vertex="1">
                    <mxGeometry x="584.5" y="735.5" width="85.5" height="100" as="geometry"/>
                </mxCell>
                <mxCell id="108" value="Administrator" style="html=1;fillColor=#FAE5C7;strokeColor=#0F8B8D;fontColor=#143642;" parent="1" vertex="1">
                    <mxGeometry x="880" y="768" width="76" height="35" as="geometry"/>
                </mxCell>
                <mxCell id="138" value="2.5 Publiser - Subscriber" style="text;html=1;align=center;verticalAlign=middle;resizable=0;points=[];autosize=1;fillColor=#FAE5C7;strokeColor=#0F8B8D;fontColor=#143642;" parent="1" vertex="1">
                    <mxGeometry x="580" y="625" width="150" height="20" as="geometry"/>
                </mxCell>
                <mxCell id="141" value="" style="endArrow=classic;dashed=1;html=1;entryX=-0.003;entryY=0.461;entryDx=0;entryDy=0;entryPerimeter=0;endFill=1;exitX=1;exitY=0.75;exitDx=0;exitDy=0;labelBackgroundColor=#DAD2D8;strokeColor=#A8201A;fontColor=#143642;" parent="1" source="8" target="125" edge="1">
                    <mxGeometry width="50" height="50" relative="1" as="geometry">
                        <mxPoint x="340" y="455" as="sourcePoint"/>
                        <mxPoint x="500" y="675" as="targetPoint"/>
                    </mxGeometry>
                </mxCell>
                <mxCell id="107" value="Supervisor" style="html=1;fillColor=#FAE5C7;strokeColor=#0F8B8D;fontColor=#143642;" parent="1" vertex="1">
                    <mxGeometry x="989.5" y="768" width="76" height="40.5" as="geometry"/>
                </mxCell>
                <mxCell id="155" value="Users" style="text;html=1;strokeColor=none;fillColor=none;align=center;verticalAlign=middle;whiteSpace=wrap;rounded=0;sketch=0;fontColor=#000000;" vertex="1" parent="1">
                    <mxGeometry x="-151.25" y="506" width="40" height="20" as="geometry"/>
                </mxCell>
                <mxCell id="156" value="" style="aspect=fixed;html=1;points=[];align=center;image;fontSize=12;image=img/lib/azure2/identity/Users.svg;rounded=0;sketch=0;strokeColor=#0F8B8D;fillColor=#FAE5C7;" vertex="1" parent="1">
                    <mxGeometry x="-160.6" y="529" width="51.2" height="56" as="geometry"/>
                </mxCell>
                <mxCell id="157" value="" style="aspect=fixed;html=1;points=[];align=center;image;fontSize=12;image=img/lib/azure2/security/Conditional_Access.svg;rounded=0;sketch=0;strokeColor=#0F8B8D;fillColor=#FAE5C7;" vertex="1" parent="1">
                    <mxGeometry x="624.5" y="786" width="56.00000000000001" height="68" as="geometry"/>
                </mxCell>
                <mxCell id="160" value="" style="aspect=fixed;html=1;points=[];align=center;image;fontSize=12;image=img/lib/azure2/app_services/App_Service_Plans.svg;rounded=0;sketch=0;strokeColor=#0F8B8D;fillColor=#FAE5C7;" vertex="1" parent="1">
                    <mxGeometry x="470" y="591" width="64" height="64" as="geometry"/>
                </mxCell>
                <mxCell id="161" value="" style="aspect=fixed;html=1;points=[];align=center;image;fontSize=12;image=img/lib/azure2/app_services/App_Service_Plans.svg;rounded=0;sketch=0;strokeColor=#0F8B8D;fillColor=#FAE5C7;" vertex="1" parent="1">
                    <mxGeometry x="150" y="591" width="64" height="64" as="geometry"/>
                </mxCell>
                <mxCell id="164" value="We are very sorry, we're having server problems, we're already working on it" style="shape=note2;boundedLbl=1;whiteSpace=wrap;html=1;size=25;verticalAlign=top;align=center;fillColor=#FAE5C7;strokeColor=#0F8B8D;fontColor=#143642;" vertex="1" parent="1">
                    <mxGeometry x="922.75" y="840" width="115" height="100" as="geometry"/>
                </mxCell>
                <mxCell id="167" style="edgeStyle=orthogonalEdgeStyle;rounded=0;orthogonalLoop=1;jettySize=auto;html=1;exitX=0.5;exitY=0;exitDx=0;exitDy=0;exitPerimeter=0;entryX=0.5;entryY=1;entryDx=0;entryDy=0;dashed=1;endArrow=none;endFill=0;labelBackgroundColor=#DAD2D8;strokeColor=#A8201A;fontColor=#143642;" edge="1" parent="1" source="164" target="109">
                    <mxGeometry relative="1" as="geometry">
                        <mxPoint x="812.8750000000005" y="839.5" as="sourcePoint"/>
                        <mxPoint x="637.2500000000005" y="725.5" as="targetPoint"/>
                        <Array as="points">
                            <mxPoint x="980" y="820"/>
                            <mxPoint x="812" y="820"/>
                        </Array>
                    </mxGeometry>
                </mxCell>
                <mxCell id="168" value="" style="aspect=fixed;pointerEvents=1;shadow=0;dashed=0;html=1;strokeColor=#006EAF;labelPosition=center;verticalLabelPosition=bottom;verticalAlign=top;align=center;fillColor=#1ba1e2;shape=mxgraph.mscae.enterprise.wireless_connection;rounded=0;labelBackgroundColor=none;sketch=0;fontColor=#ffffff;rotation=-45;gradientColor=#ffffff;" vertex="1" parent="1">
                    <mxGeometry x="349.99999999999994" y="415" width="50.4" height="60" as="geometry"/>
                </mxCell>
                <mxCell id="172" value="Synchronization" style="shape=note2;boundedLbl=1;whiteSpace=wrap;html=1;size=25;verticalAlign=top;align=center;fillColor=#FAE5C7;strokeColor=#0F8B8D;fontColor=#143642;" vertex="1" parent="1">
                    <mxGeometry x="1077.75" y="465" width="100" height="50" as="geometry"/>
                </mxCell>
                <mxCell id="173" style="edgeStyle=orthogonalEdgeStyle;rounded=0;orthogonalLoop=1;jettySize=auto;html=1;entryX=0;entryY=0.5;entryDx=0;entryDy=0;entryPerimeter=0;dashed=1;endArrow=none;endFill=0;labelBackgroundColor=#DAD2D8;strokeColor=#A8201A;fontColor=#143642;exitX=1;exitY=0.5;exitDx=0;exitDy=0;exitPerimeter=0;" edge="1" parent="1" target="172">
                    <mxGeometry relative="1" as="geometry">
                        <Array as="points">
                            <mxPoint x="1040" y="515"/>
                            <mxPoint x="1040" y="490"/>
                        </Array>
                        <mxPoint x="1010" y="515" as="sourcePoint"/>
                        <mxPoint x="1045.9999999999995" y="495" as="targetPoint"/>
                    </mxGeometry>
                </mxCell>
                <mxCell id="174" value="Synchronization" style="shape=note2;boundedLbl=1;whiteSpace=wrap;html=1;size=25;verticalAlign=top;align=center;fillColor=#FAE5C7;strokeColor=#0F8B8D;fontColor=#143642;" vertex="1" parent="1">
                    <mxGeometry x="611.13" y="465" width="100" height="50" as="geometry"/>
                </mxCell>
                <mxCell id="175" style="edgeStyle=orthogonalEdgeStyle;rounded=0;orthogonalLoop=1;jettySize=auto;html=1;entryX=0;entryY=0;entryDx=100;entryDy=37.5;entryPerimeter=0;dashed=1;endArrow=none;endFill=0;labelBackgroundColor=#DAD2D8;strokeColor=#A8201A;fontColor=#143642;exitX=0;exitY=0.5;exitDx=0;exitDy=0;exitPerimeter=0;" edge="1" parent="1" target="174">
                    <mxGeometry relative="1" as="geometry">
                        <Array as="points">
                            <mxPoint x="730" y="515"/>
                            <mxPoint x="730" y="503"/>
                            <mxPoint x="711" y="503"/>
                        </Array>
                        <mxPoint x="755" y="515" as="sourcePoint"/>
                        <mxPoint x="579.3799999999995" y="495" as="targetPoint"/>
                    </mxGeometry>
                </mxCell>
                <mxCell id="176" value="" style="pointerEvents=1;shadow=0;dashed=0;html=1;strokeColor=#006EAF;labelPosition=center;verticalLabelPosition=bottom;verticalAlign=top;align=center;fillColor=#1ba1e2;shape=mxgraph.mscae.intune.update;rounded=0;labelBackgroundColor=none;sketch=0;fontColor=#ffffff;gradientColor=#ffffff;gradientDirection=north;" vertex="1" parent="1">
                    <mxGeometry x="863.5" y="491" width="48" height="50" as="geometry"/>
                </mxCell>
                <mxCell id="178" value="" style="aspect=fixed;html=1;points=[];align=center;image;fontSize=12;image=img/lib/azure2/app_services/App_Service_Plans.svg;rounded=0;sketch=0;strokeColor=#0F8B8D;fillColor=#FAE5C7;" vertex="1" parent="1">
                    <mxGeometry x="955.75" y="225" width="64" height="64" as="geometry"/>
                </mxCell>
                <mxCell id="179" style="edgeStyle=orthogonalEdgeStyle;rounded=0;orthogonalLoop=1;jettySize=auto;html=1;exitX=0.5;exitY=0;exitDx=0;exitDy=0;exitPerimeter=0;entryX=0.5;entryY=1;entryDx=0;entryDy=0;dashed=1;endArrow=none;endFill=0;labelBackgroundColor=#DAD2D8;strokeColor=#A8201A;fontColor=#143642;" edge="1" parent="1" source="164" target="108">
                    <mxGeometry relative="1" as="geometry">
                        <mxPoint x="923.625" y="839.5" as="sourcePoint"/>
                        <mxPoint x="922.75" y="803" as="targetPoint"/>
                        <Array as="points">
                            <mxPoint x="980" y="820"/>
                            <mxPoint x="918" y="820"/>
                        </Array>
                    </mxGeometry>
                </mxCell>
                <mxCell id="180" style="edgeStyle=orthogonalEdgeStyle;rounded=0;orthogonalLoop=1;jettySize=auto;html=1;exitX=0.5;exitY=0;exitDx=0;exitDy=0;exitPerimeter=0;entryX=0.5;entryY=1;entryDx=0;entryDy=0;dashed=1;endArrow=none;endFill=0;labelBackgroundColor=#DAD2D8;strokeColor=#A8201A;fontColor=#143642;" edge="1" parent="1" source="164" target="107">
                    <mxGeometry relative="1" as="geometry">
                        <mxPoint x="1028.3750000000005" y="839.5" as="sourcePoint"/>
                        <mxPoint x="1027.92" y="814.5" as="targetPoint"/>
                        <Array as="points">
                            <mxPoint x="980" y="820"/>
                            <mxPoint x="1028" y="820"/>
                        </Array>
                    </mxGeometry>
                </mxCell>
                <mxCell id="181" style="edgeStyle=orthogonalEdgeStyle;rounded=0;orthogonalLoop=1;jettySize=auto;html=1;exitX=0.5;exitY=0;exitDx=0;exitDy=0;exitPerimeter=0;entryX=0.5;entryY=1;entryDx=0;entryDy=0;dashed=1;endArrow=none;endFill=0;labelBackgroundColor=#DAD2D8;strokeColor=#A8201A;fontColor=#143642;" edge="1" parent="1" source="164" target="106">
                    <mxGeometry relative="1" as="geometry">
                        <mxPoint x="1134.94" y="821.5" as="sourcePoint"/>
                        <mxPoint x="1090.04" y="803" as="targetPoint"/>
                        <Array as="points">
                            <mxPoint x="980" y="820"/>
                            <mxPoint x="1135" y="820"/>
                        </Array>
                    </mxGeometry>
                </mxCell>
                <mxCell id="183" style="edgeStyle=none;rounded=0;orthogonalLoop=1;jettySize=auto;html=1;dashed=1;labelBackgroundColor=#DAD2D8;strokeColor=#A8201A;fontColor=#143642;exitX=0.12;exitY=0.625;exitDx=0;exitDy=0;exitPerimeter=0;entryX=1;entryY=0.5;entryDx=0;entryDy=0;" edge="1" parent="1" source="12" target="246">
                    <mxGeometry relative="1" as="geometry">
                        <mxPoint x="-146.87" y="252.49999999999991" as="sourcePoint"/>
                        <mxPoint x="-170" y="257" as="targetPoint"/>
                    </mxGeometry>
                </mxCell>
                <mxCell id="190" value="" style="aspect=fixed;html=1;points=[];align=center;image;fontSize=12;image=img/lib/mscae/Developer_Tools.svg;" vertex="1" parent="1">
                    <mxGeometry x="1030.75" y="890" width="47" height="50" as="geometry"/>
                </mxCell>
                <mxCell id="191" value="" style="aspect=fixed;html=1;points=[];align=center;image;fontSize=12;image=img/lib/mscae/Info_2.svg;" vertex="1" parent="1">
                    <mxGeometry x="890" y="850" width="35" height="35" as="geometry"/>
                </mxCell>
                <mxCell id="202" value="" style="aspect=fixed;html=1;points=[];align=center;image;fontSize=12;image=img/lib/azure2/databases/SQL_Database.svg;" vertex="1" parent="1">
                    <mxGeometry x="-63.25" y="883" width="48" height="64" as="geometry"/>
                </mxCell>
                <mxCell id="203" value="" style="aspect=fixed;html=1;points=[];align=center;image;fontSize=12;image=img/lib/azure2/databases/SQL_Database.svg;" vertex="1" parent="1">
                    <mxGeometry x="-31.5" y="680.5" width="48" height="64" as="geometry"/>
                </mxCell>
                <mxCell id="204" value="" style="aspect=fixed;html=1;points=[];align=center;image;fontSize=12;image=img/lib/azure2/databases/SQL_Database.svg;" vertex="1" parent="1">
                    <mxGeometry x="-157.4" y="678" width="48" height="64" as="geometry"/>
                </mxCell>
                <mxCell id="205" value="" style="aspect=fixed;html=1;points=[];align=center;image;fontSize=12;image=img/lib/azure2/databases/SQL_Database.svg;" vertex="1" parent="1">
                    <mxGeometry x="-274.5" y="678" width="48" height="64" as="geometry"/>
                </mxCell>
                <mxCell id="206" value="" style="aspect=fixed;html=1;points=[];align=center;image;fontSize=12;image=img/lib/azure2/databases/SQL_Database.svg;" vertex="1" parent="1">
                    <mxGeometry x="-202.75" y="885" width="48" height="64" as="geometry"/>
                </mxCell>
                <mxCell id="207" value="" style="aspect=fixed;html=1;points=[];align=center;image;fontSize=12;image=img/lib/azure2/databases/SQL_Database.svg;" vertex="1" parent="1">
                    <mxGeometry x="-349.25" y="885" width="48" height="64" as="geometry"/>
                </mxCell>
                <mxCell id="208" value="" style="aspect=fixed;html=1;points=[];align=center;image;fontSize=12;image=img/lib/azure2/databases/SQL_Database.svg;" vertex="1" parent="1">
                    <mxGeometry x="37.25" y="885" width="48" height="64" as="geometry"/>
                </mxCell>
                <mxCell id="211" value="" style="aspect=fixed;html=1;points=[];align=center;image;fontSize=12;image=img/lib/azure2/identity/Users.svg;rounded=0;sketch=0;strokeColor=#0F8B8D;fillColor=#FAE5C7;" vertex="1" parent="1">
                    <mxGeometry x="60" y="235" width="51.2" height="56" as="geometry"/>
                </mxCell>
                <mxCell id="216" value="" style="aspect=fixed;html=1;points=[];align=center;image;fontSize=12;image=img/lib/azure2/app_services/App_Service_Plans.svg;rounded=0;sketch=0;strokeColor=#0F8B8D;fillColor=#FAE5C7;" vertex="1" parent="1">
                    <mxGeometry x="964.75" y="410" width="55" height="55" as="geometry"/>
                </mxCell>
                <mxCell id="217" value="" style="aspect=fixed;html=1;points=[];align=center;image;fontSize=12;image=img/lib/azure2/app_services/App_Service_Plans.svg;rounded=0;sketch=0;strokeColor=#0F8B8D;fillColor=#FAE5C7;" vertex="1" parent="1">
                    <mxGeometry x="30.25" y="367.5" width="72.5" height="72.5" as="geometry"/>
                </mxCell>
                <mxCell id="221" value="" style="aspect=fixed;html=1;points=[];align=center;image;fontSize=12;image=img/lib/azure2/databases/SQL_Database.svg;" vertex="1" parent="1">
                    <mxGeometry x="750" y="487" width="48" height="64" as="geometry"/>
                </mxCell>
                <mxCell id="220" value="" style="verticalLabelPosition=bottom;html=1;fillColor=#0050ef;strokeColor=#001DBC;verticalAlign=top;pointerEvents=1;align=center;shape=mxgraph.cisco_safe.iot_things_icons.icon37;fontColor=#ffffff;gradientColor=#66B2FF;" vertex="1" parent="1">
                    <mxGeometry x="792" y="506" width="40" height="45" as="geometry"/>
                </mxCell>
                <mxCell id="222" value="" style="aspect=fixed;html=1;points=[];align=center;image;fontSize=12;image=img/lib/azure2/databases/SQL_Database.svg;" vertex="1" parent="1">
                    <mxGeometry x="781.5" y="295" width="48" height="64" as="geometry"/>
                </mxCell>
                <mxCell id="223" value="" style="verticalLabelPosition=bottom;html=1;fillColor=#0050ef;strokeColor=#001DBC;verticalAlign=top;pointerEvents=1;align=center;shape=mxgraph.cisco_safe.iot_things_icons.icon37;fontColor=#ffffff;gradientColor=#66B2FF;" vertex="1" parent="1">
                    <mxGeometry x="823.5" y="314" width="40" height="45" as="geometry"/>
                </mxCell>
                <mxCell id="224" value="" style="aspect=fixed;html=1;points=[];align=center;image;fontSize=12;image=img/lib/azure2/databases/SQL_Database.svg;" vertex="1" parent="1">
                    <mxGeometry x="907.5" y="303" width="48" height="64" as="geometry"/>
                </mxCell>
                <mxCell id="226" value="" style="aspect=fixed;html=1;points=[];align=center;image;fontSize=12;image=img/lib/azure2/databases/SQL_Database.svg;" vertex="1" parent="1">
                    <mxGeometry x="928.5" y="491" width="48" height="64" as="geometry"/>
                </mxCell>
                <mxCell id="228" value="" style="aspect=fixed;html=1;points=[];align=center;image;fontSize=12;image=img/lib/azure2/identity/Users.svg;rounded=0;sketch=0;strokeColor=#0F8B8D;fillColor=#FAE5C7;" vertex="1" parent="1">
                    <mxGeometry x="956" y="320" width="40.69" height="44.5" as="geometry"/>
                </mxCell>
                <mxCell id="229" value="" style="aspect=fixed;html=1;points=[];align=center;image;fontSize=12;image=img/lib/azure2/identity/Users.svg;rounded=0;sketch=0;strokeColor=#0F8B8D;fillColor=#FAE5C7;" vertex="1" parent="1">
                    <mxGeometry x="976.5" y="496.75" width="40.69" height="44.5" as="geometry"/>
                </mxCell>
                <mxCell id="230" value="DB Server" style="text;html=1;align=center;verticalAlign=middle;resizable=0;points=[];autosize=1;fillColor=#f5f5f5;strokeColor=#666666;fontColor=#000000;" vertex="1" parent="1">
                    <mxGeometry x="305" y="871.5" width="70" height="20" as="geometry"/>
                </mxCell>
                <mxCell id="232" value="Switch" style="rounded=0;whiteSpace=wrap;html=1;fillColor=#FAE5C7;strokeColor=#0F8B8D;fontColor=#143642;" vertex="1" parent="1">
                    <mxGeometry x="300" y="537" width="80" height="23" as="geometry"/>
                </mxCell>
                <mxCell id="231" value="" style="shape=mxgraph.cisco.switches.workgroup_switch;html=1;pointerEvents=1;dashed=0;fillColor=#1ba1e2;strokeColor=#006EAF;strokeWidth=2;verticalLabelPosition=bottom;verticalAlign=top;align=center;outlineConnect=0;fontColor=#ffffff;labelBackgroundColor=none;gradientColor=#FFFFFF;" vertex="1" parent="1">
                    <mxGeometry x="298.75" y="560" width="76.25" height="35" as="geometry"/>
                </mxCell>
                <mxCell id="236" value="Courses DB" style="text;html=1;align=center;verticalAlign=middle;resizable=0;points=[];autosize=1;fontColor=#000000;" vertex="1" parent="1">
                    <mxGeometry x="700" y="320" width="80" height="20" as="geometry"/>
                </mxCell>
                <mxCell id="237" value="Courses DB 2" style="text;html=1;align=center;verticalAlign=middle;resizable=0;points=[];autosize=1;fontColor=#000000;" vertex="1" parent="1">
                    <mxGeometry x="658.5" y="529" width="90" height="20" as="geometry"/>
                </mxCell>
                <mxCell id="238" value="Users DB" style="text;html=1;align=center;verticalAlign=middle;resizable=0;points=[];autosize=1;fontColor=#000000;" vertex="1" parent="1">
                    <mxGeometry x="996.69" y="326" width="70" height="20" as="geometry"/>
                </mxCell>
                <mxCell id="239" value="Users DB 2" style="text;html=1;align=center;verticalAlign=middle;resizable=0;points=[];autosize=1;fontColor=#000000;" vertex="1" parent="1">
                    <mxGeometry x="1014.25" y="529" width="80" height="20" as="geometry"/>
                </mxCell>
                <mxCell id="241" value="" style="verticalLabelPosition=bottom;aspect=fixed;html=1;verticalAlign=top;strokeColor=none;align=center;outlineConnect=0;shape=mxgraph.citrix.laptop_2;" vertex="1" parent="1">
                    <mxGeometry x="298.75" y="323.5" width="79.12" height="59" as="geometry"/>
                </mxCell>
                <mxCell id="243" value="TCP/IP" style="text;html=1;align=center;verticalAlign=middle;resizable=0;points=[];autosize=1;fontColor=#000000;" vertex="1" parent="1">
                    <mxGeometry x="290" y="390" width="50" height="20" as="geometry"/>
                </mxCell>
                <mxCell id="244" value="TCP/IP" style="text;html=1;align=center;verticalAlign=middle;resizable=0;points=[];autosize=1;fontColor=#000000;" vertex="1" parent="1">
                    <mxGeometry x="235" y="564" width="50" height="20" as="geometry"/>
                </mxCell>
                <mxCell id="245" value="TCP/IP" style="text;html=1;align=center;verticalAlign=middle;resizable=0;points=[];autosize=1;fontColor=#000000;" vertex="1" parent="1">
                    <mxGeometry x="395" y="564" width="50" height="20" as="geometry"/>
                </mxCell>
                <mxCell id="246" value="User Interfaces" style="rounded=0;whiteSpace=wrap;html=1;fillColor=#FAE5C7;strokeColor=#0F8B8D;fontColor=#143642;" vertex="1" parent="1">
                    <mxGeometry x="-240" y="255" width="90" height="40" as="geometry"/>
                </mxCell>
                <mxCell id="247" value="Application and Domain Services&amp;nbsp;" style="rounded=0;whiteSpace=wrap;html=1;fillColor=#FAE5C7;strokeColor=#0F8B8D;fontColor=#143642;" vertex="1" parent="1">
                    <mxGeometry x="-250" y="319" width="100" height="40" as="geometry"/>
                </mxCell>
                <mxCell id="248" value="Data Access" style="rounded=0;whiteSpace=wrap;html=1;fillColor=#FAE5C7;strokeColor=#0F8B8D;fontColor=#143642;" vertex="1" parent="1">
                    <mxGeometry x="-231.25" y="383.75" width="80" height="40" as="geometry"/>
                </mxCell>
                <mxCell id="251" value="" style="html=1;aspect=fixed;strokeColor=none;shadow=0;align=center;verticalAlign=top;fillColor=#3B8DF1;shape=mxgraph.gcp2.data_access;fontColor=#000000;" vertex="1" parent="1">
                    <mxGeometry x="-274.49999999999994" y="387" width="31.16" height="33.5" as="geometry"/>
                </mxCell>
                <mxCell id="252" value="" style="shadow=0;dashed=0;html=1;strokeColor=none;fillColor=#4495D1;labelPosition=center;verticalLabelPosition=bottom;verticalAlign=top;align=center;outlineConnect=0;shape=mxgraph.veeam.2d.web_ui;fontColor=#000000;" vertex="1" parent="1">
                    <mxGeometry x="-284.8" y="258.8" width="34.8" height="32.4" as="geometry"/>
                </mxCell>
                <mxCell id="254" value="" style="aspect=fixed;html=1;points=[];align=center;image;fontSize=12;image=img/lib/azure2/app_services/App_Service_Domains.svg;" vertex="1" parent="1">
                    <mxGeometry x="-301.25" y="324" width="37.5" height="30" as="geometry"/>
                </mxCell>
                <mxCell id="256" value="" style="aspect=fixed;html=1;points=[];align=center;image;fontSize=12;image=img/lib/azure2/identity/Users.svg;rounded=0;sketch=0;strokeColor=#0F8B8D;fillColor=#FAE5C7;" vertex="1" parent="1">
                    <mxGeometry x="450" y="215" width="51.2" height="56" as="geometry"/>
                </mxCell>
                <mxCell id="255" value="" style="aspect=fixed;html=1;points=[];align=center;image;fontSize=12;image=img/lib/azure2/identity/Users.svg;rounded=0;sketch=0;strokeColor=#0F8B8D;fillColor=#FAE5C7;" vertex="1" parent="1">
                    <mxGeometry x="430" y="220.75" width="51.2" height="56" as="geometry"/>
                </mxCell>
                <mxCell id="162" value="" style="aspect=fixed;html=1;points=[];align=center;image;fontSize=12;image=img/lib/azure2/identity/Users.svg;rounded=0;sketch=0;strokeColor=#0F8B8D;fillColor=#FAE5C7;" vertex="1" parent="1">
                    <mxGeometry x="414" y="225" width="51.2" height="56" as="geometry"/>
                </mxCell>
                <mxCell id="257" value="" style="aspect=fixed;html=1;points=[];align=center;image;fontSize=12;image=img/lib/azure2/databases/SQL_Managed_Instance.svg;" vertex="1" parent="1">
                    <mxGeometry x="320" y="808.5" width="65" height="64" as="geometry"/>
                </mxCell>
                <mxCell id="258" value="Request" style="text;html=1;align=center;verticalAlign=middle;resizable=0;points=[];autosize=1;fontColor=#000000;" vertex="1" parent="1">
                    <mxGeometry x="225" y="710.5" width="60" height="20" as="geometry"/>
                </mxCell>
                <mxCell id="259" value="Request" style="text;html=1;align=center;verticalAlign=middle;resizable=0;points=[];autosize=1;fontColor=#000000;" vertex="1" parent="1">
                    <mxGeometry x="395" y="710.5" width="60" height="20" as="geometry"/>
                </mxCell>
            </root>
        </mxGraphModel>
    </diagram>
</mxfile>